# xmcd CD database file
#
# Track frame offsets:
#	150
#	14124
#	28607
#	48945
#	77539
#	99928
#	130778
#	157543
#	179741
#	196196
#	213031
#	241871
#
# Disc length: 3466 seconds
#
# Revision: 0
# Processed by: cddbd v1.5.2PL0 Copyright (c) Steve Scherf et al.
# Submitted via: CDex 1.51
#
DISCID=890d880c
DTITLE=M and J Blues - In The Presence Of Firends - Disc 2
DYEAR=2017
DGENRE=Blues
TTITLE0=Travelling Shoes
TTITLE1=Willie And The Hand Jive
TTITLE2=Cry To Me
TTITLE3=Early In The Morning
TTITLE4=Who'll Buy My Memories
TTITLE5=Tower Of Song - Red Right Hand
TTITLE6=Pilgrim - No Cadilac
TTITLE7=The Ballad Of Pat Garrett and Billy The Kid
TTITLE8=Waterboy
TTITLE9=You Never Can Tell
TTITLE10=Stranger In My Home Town
TTITLE11=Goodnight Irene
EXTD=YEAR: 2017
EXTT0=
EXTT1=
EXTT2=
EXTT3=
EXTT4=
EXTT5=
EXTT6=
EXTT7=
EXTT8=
EXTT9=
EXTT10=
EXTT11=
PLAYORDER=
